<?xml version="1.0" encoding="UTF-8" standalone="no"?>
<!-- Created with Inkscape (http://www.inkscape.org/) -->

<svg
   width="16"
   height="16"
   viewBox="0 0 16 16"
   version="1.1"
   id="svg1"
   xml:space="preserve"
   inkscape:version="1.3 (0e150ed6c4, 2023-07-21)"
   sodipodi:docname="icon-audio-gray.svg"
   xmlns:inkscape="http://www.inkscape.org/namespaces/inkscape"
   xmlns:sodipodi="http://sodipodi.sourceforge.net/DTD/sodipodi-0.dtd"
   xmlns="http://www.w3.org/2000/svg"
   xmlns:svg="http://www.w3.org/2000/svg"><sodipodi:namedview
     id="namedview1"
     pagecolor="#ffffff"
     bordercolor="#666666"
     borderopacity="1.0"
     inkscape:showpageshadow="2"
     inkscape:pageopacity="0.0"
     inkscape:pagecheckerboard="0"
     inkscape:deskcolor="#d1d1d1"
     inkscape:document-units="px"
     inkscape:zoom="23.062402"
     inkscape:cx="16.065109"
     inkscape:cy="9.2141314"
     inkscape:window-width="1920"
     inkscape:window-height="1009"
     inkscape:window-x="1912"
     inkscape:window-y="-8"
     inkscape:window-maximized="1"
     inkscape:current-layer="g40" /><defs
     id="defs1" /><g
     inkscape:label="Vrstva 1"
     inkscape:groupmode="layer"
     id="layer1"
     transform="translate(-6.4550781e-7,-1.5875075)"><path
       id="path23"
       style="color:#000000;display:none;fill:#ff00ff;-inkscape-stroke:none"
       d="M -1.05928,4.93582 V 6.52371 H 56.886029 V 4.93582 Z m 9.46e-4,0.79438 H 56.885419 M -1.05928,11.94753 v 1.58789 h 57.945309 v -1.58789 z m 9.46e-4,0.79413 H 56.885419 M -1.05928,18.9866 v 1.58593 H 56.886029 V 18.9866 Z m 9.46e-4,0.79297 H 56.885419 M -1.05928,26.02371 v 1.58789 h 57.945309 v -1.58789 z m 9.46e-4,0.79378 H 56.885419 M -1.05928,33.06082 v 1.58789 h 57.945309 v -1.58789 z m 9.46e-4,0.79459 h 57.943753" /><g
       id="g36"
       style="display:none"><path
         d="m 26.165349,36.70385 v -3.41829 h 0.2202 0.24774 l 0.41426,-0.44104 c 2.6824,-2.81788 3.91831,-4.87325 4.1399,-6.81597 0.0262,-0.32698 0.0177,-1.12027 -0.0275,-1.61434 -0.0875,-0.95451 -0.31381,-1.73339 -0.60363,-2.44708 -0.0537,-0.16624 -0.10735,-0.29951 -0.10735,-0.38607 0,-0.10716 0.0798,-0.32698 0.18718,-0.40804 0.0867,-0.11266 0.32891,-0.19235 0.46793,-0.19235 0.10734,0 0.35508,0.11266 0.44179,0.19235 0.0798,0.0811 0.18718,0.35447 0.40738,1.01531 0.71567,2.16254 0.57749,2.96642 0.30361,4.63435 -0.16653,0.98784 -0.52161,1.97018 -1.06938,3.09129 -0.41426,0.8216 -0.76935,1.4275 -1.78506,3.0707 -1.37077,2.19002 -1.8924,3.23006 -2.30115,4.45972 -0.27388,0.82159 -0.46794,1.83553 -0.46794,2.517 v 0.16624 h -0.2202 -0.24774 v -3.42378 z"
         id="path58"
         style="fill:#00ff00;stroke-width:0.264583" /><path
         style="color:#000000;fill:#00ff00;stroke-linejoin:round;-inkscape-stroke:none"
         d="m 26.210389,17.80708 h -0.34406 v 22.11721 h 0.34406 z"
         id="path19" /><path
         style="color:#000000;fill:#00ff00;stroke-linejoin:round;-inkscape-stroke:none"
         d="m 25.866499,17.52957 a 0.27784029,0.27784029 0 0 0 -0.27734,0.27734 V 39.9241 a 0.27784029,0.27784029 0 0 0 0.27734,0.27734 h 0.34375 a 0.27784029,0.27784029 0 0 0 0.27735,-0.27734 V 17.80691 a 0.27784029,0.27784029 0 0 0 -0.27735,-0.27734 z"
         id="path20" /><path
         d="m 29.140359,20.52192 c 1.12444,-0.13877 2.27365,-0.60041 3.2632,-1.36841 1.12443,-0.82022 1.8924,-1.91523 2.14014,-3.03772 0.0537,-0.35859 0.0537,-0.98647 -0.0275,-1.26124 -0.24636,-0.96038 -1.0157,-1.56077 -2.16629,-1.80807 -0.32754,-0.0536 -1.15608,-0.0536 -1.56484,0 -1.04185,0.19371 -2.11261,0.66084 -3.04161,1.3423 -1.0969,0.82024 -1.86626,1.91524 -2.11397,3.03772 -0.0537,0.3586 -0.0537,0.98646 0.0275,1.28735 0.24773,0.9013 0.98957,1.50855 2.08647,1.75448 0.30003,0.0536 1.06938,0.0811 1.39693,0.0536 z"
         id="path2616"
         style="fill:#00ff00;stroke-width:0.264583" /></g><g
       id="g40"
       transform="matrix(0.4,0,0,0.4,3.873047e-7,0.98750988)"
       style="stroke-width:2.5"><rect
         style="display:none;opacity:0.963605;fill:#00ff00;fill-opacity:0.5;stroke:none;stroke-width:1.25016;paint-order:markers stroke fill"
         id="rect4"
         width="40"
         height="40"
         x="6.4550784e-07"
         y="1.499994" /><g
         id="g39"
         style="display:inline;stroke-width:2.5"><path
           style="color:#000000;font-variation-settings:normal;opacity:1;vector-effect:none;fill:#878787;fill-opacity:1;stroke-width:2.49999;stroke-linecap:butt;stroke-linejoin:miter;stroke-miterlimit:4;stroke-dasharray:none;stroke-dashoffset:0;stroke-opacity:1;-inkscape-stroke:none;stop-color:#000000;stop-opacity:1"
           d="m 14.527027,21.587507 -0.0056,18.952703 1.351352,2.71e-4 0.0056,-18.952704 z m 2.364865,1.824325 v 15.405404 h 1.351351 V 23.411832 Z m 9.594594,1.756755 v 11.891894 h 1.351352 V 25.168587 Z m -14.324323,0.54054 v 10.810814 h 1.35135 V 25.709127 Z m 7.162161,0.675678 v 9.459458 h 1.351352 v -9.459458 z m 4.72973,0 v 9.459458 h 1.351351 v -9.459458 z m 4.72973,0.54054 v 8.378378 h 1.351351 V 26.925345 Z M 9.7297306,28.141562 v 5.945946 h 1.3513524 v -5.945946 z m 11.8918904,0 v 5.945946 h 1.351353 v -5.945946 z m 9.594595,0.52523 v 4.895747 h 1.351351 v -4.895747 z m -23.8513502,0.08181 -0.0079,4.623366 1.3513518,0.002 0.0079,-4.623101 z M 5.0000006,29.89831 v 2.432432 H 6.3513525 V 29.89831 Z m 28.6486474,0 v 2.432432 h 1.351353 V 29.89831 Z"
           id="path36" /><g
           id="g38"
           transform="translate(3.6150967,0.13140313)"
           style="font-variation-settings:normal;opacity:1;vector-effect:none;fill:#878787;fill-opacity:1;stroke-width:2.49999;stroke-linecap:butt;stroke-linejoin:miter;stroke-miterlimit:4;stroke-dasharray:none;stroke-dashoffset:0;stroke-opacity:1;-inkscape-stroke:none;stop-color:#000000;stop-opacity:1"><path
             d="m 31.110568,5.801596 v 1.8072117 h 0.116378 0.130915 l 0.218924,0.233165 c 1.417562,1.4897867 2.070701,2.5764343 2.187799,3.6035253 0.01382,0.172871 0.01382,0.592713 -0.01455,0.853483 -0.07346,0.681334 -0.261104,1.419327 -0.536766,2.054899 -0.02836,0.08789 -0.05673,0.158354 -0.05673,0.204116 0,0.05665 0.04218,0.172871 0.09892,0.215725 0.04582,0.05956 0.173827,0.1017 0.247293,0.1017 0.05673,0 0.187649,-0.05956 0.233471,-0.1017 0.04218,-0.04289 0.09891,-0.187398 0.215287,-0.536779 0.378208,-1.143313 0.52295,-2.329475 0.378208,-3.211285 -0.088,-0.522263 -0.275652,-1.0416181 -0.565131,-1.6343356 C 33.545661,8.9569478 33.358007,8.6366205 32.821241,7.7678837 32.096824,6.6100491 31.821168,6.0601859 31.605154,5.4100819 31.460417,4.9757186 31.357861,4.4396505 31.357861,4.0793763 v -0.087894 h -0.116372 -0.130921 z"
             id="path2786"
             style="font-variation-settings:normal;vector-effect:none;fill:#878787;fill-opacity:1;stroke-width:2.49999;stroke-linecap:butt;stroke-linejoin:miter;stroke-miterlimit:4;stroke-dasharray:none;stroke-dashoffset:0;stroke-opacity:1;-inkscape-stroke:none;stop-color:#000000;stop-opacity:1" /><path
             style="color:#000000;font-variation-settings:normal;vector-effect:none;fill:#878787;fill-opacity:1;stroke-width:2.49999;stroke-linecap:butt;stroke-linejoin:miter;stroke-miterlimit:4;stroke-dasharray:none;stroke-dashoffset:0;stroke-opacity:1;-inkscape-stroke:none;stop-color:#000000;stop-opacity:1"
             d="m 31.238579,15.792095 h 0.18183 V 4.0989863 h -0.18183 z"
             id="path16" /><path
             style="color:#000000;font-variation-settings:normal;vector-effect:none;fill:#878787;fill-opacity:1;stroke-width:2.49999;stroke-linecap:butt;stroke-linejoin:miter;stroke-miterlimit:4;stroke-dasharray:none;stroke-dashoffset:0;stroke-opacity:1;-inkscape-stroke:none;stop-color:#000000;stop-opacity:1"
             d="m 31.239042,3.9561077 a 0.14322934,0.14322934 0 0 0 -0.14398,0.1429714 V 15.791682 a 0.14322934,0.14322934 0 0 0 0.14398,0.143982 h 0.181234 a 0.14322934,0.14322934 0 0 0 0.142973,-0.143982 V 4.0990791 A 0.14322934,0.14322934 0 0 0 31.420276,3.9561077 Z"
             id="path17" /><path
             d="m 29.869008,14.982671 c -0.594221,0.07336 -1.201543,0.31742 -1.724488,0.723466 -0.594226,0.433637 -1.000073,1.012549 -1.130993,1.605998 -0.02836,0.189579 -0.02836,0.521531 0.01455,0.666802 0.130193,0.50773 0.536766,0.82516 1.144809,0.955904 0.173106,0.02835 0.610952,0.02835 0.826972,0 0.550582,-0.102421 1.116445,-0.349382 1.607389,-0.709661 0.579679,-0.433641 0.986256,-1.012564 1.117172,-1.606008 0.02837,-0.189584 0.02837,-0.521521 -0.01454,-0.680597 -0.13092,-0.476501 -0.52295,-0.79756 -1.102629,-0.927577 -0.158558,-0.0283 -0.565131,-0.04289 -0.738237,-0.0283 z"
             id="path2792"
             style="font-variation-settings:normal;vector-effect:none;fill:#878787;fill-opacity:1;stroke-width:2.49999;stroke-linecap:butt;stroke-linejoin:miter;stroke-miterlimit:4;stroke-dasharray:none;stroke-dashoffset:0;stroke-opacity:1;-inkscape-stroke:none;stop-color:#000000;stop-opacity:1" /></g><path
           d="M 10.094123,4.9469849 C 9.9477182,4.8842436 9.7803963,4.9051502 9.6549068,5.0515609 L 5.8692859,8.8371808 H 5.8274513 3.0039217 c -0.5647062,0 -1.0039211,0.4392163 -1.0039211,0.9830068 v 3.5764714 c 0,0.522875 0.4392149,1.003921 1.0039211,1.003921 h 2.8444449 c 0,0 0,0 0.041824,0 l 3.7856204,3.743792 c 0.083664,0.08365 0.1673201,0.146405 0.2718966,0.146405 0.2300644,0 0.3973854,-0.230066 0.3973854,-0.439216 V 5.3234552 C 10.324175,5.1352195 10.240517,5.0097293 10.094111,4.9469849 Z m 1.275817,4.8104582 c 0.962092,1.0248359 0.962092,2.6352939 0,3.6810439 l 1.213072,1.213073 c 1.715033,-1.715033 1.715033,-4.454903 0,-6.1071888 z m 2.426143,-2.467975 c 2.363399,2.3633979 2.363399,6.2326789 0,8.6169929 l 1.233986,1.233987 c 3.074511,-3.07451 3.074511,-7.9895419 0,-11.0640519 z m 2.488889,-2.4888886 c 3.722877,3.7856214 3.722877,9.8091495 0,13.5529405 l 1.213072,1.233988 c 4.433986,-4.433987 4.433986,-11.566013 0,-16.0000005 z"
           id="path1"
           style="fill:#878787;fill-opacity:1;stroke-width:2.49999" /></g></g></g></svg>
